<?xml version="1.0" encoding="UTF-8"?> <svg xmlns="http://www.w3.org/2000/svg" width="520" height="118.592"><g fill="none" fill-rule="evenodd"><path fill="#9DC567" d="M29.466 102.094c2.157-.269 4.702.688 6.946 1.53.451.17.887.334 1.3.48 5.233 1.852 11.264 3.579 16.617.577 5.62-3.15 3.843-9.229 2.545-13.666a45.1 45.1 0 0 0-.61-1.876c-1.155-3.394-2.592-7.618.078-9.927 2.766-2.393 6.372.136 9.858 2.58 1.992 1.398 3.883 2.728 5.574 3.103 6.658 1.512 10.53-1.18 15.013-4.297 1.237-.86 2.515-1.75 3.919-2.595 1.153-.698 2.378-1.28 3.561-1.844a91.694 91.694 0 0 0 1.618-.787l-2.17-7.205c-2.181 1.343-4.046 3.179-5.85 4.96-1.857 1.836-3.777 3.733-6.048 5.091-5.831 3.487-12.326.822-16.706-1.488-.86-.454-1.734-1.05-2.578-1.629-2.956-2.02-6.012-4.11-9.75-1.269-3.3 2.51-2.107 8.138-1.318 11.863.1.473.195.919.274 1.326.04.21.1.458.167.735.279 1.153.698 2.896.038 3.686-.282.338-.741.485-1.403.447-.398-.023-1.257-.72-2.019-1.334-.88-.707-1.788-1.44-2.453-1.62l-.104-.028c-4.486-1.172-9.245.51-13.448 1.995-.986.348-1.914.677-2.84.973-2.874.917-5.858 3.514-8.494 5.805-1.036.9-2.013 1.75-2.926 2.452a17.06 17.06 0 0 0-1.77 1.577l.758 2.522 7.095 1.67c.34-.349.662-.705.973-1.06 1.175-1.342 2.19-2.502 4.153-2.747"></path><path fill="#3D7454" d="M94.267 76.16c-1.184.564-2.408 1.145-3.562 1.843-1.403.845-2.681 1.735-3.918 2.595-4.483 3.117-8.355 5.809-15.012 4.297-1.692-.376-3.583-1.706-5.575-3.102-3.486-2.444-7.092-4.974-9.857-2.581-2.671 2.308-1.234 6.534-.08 9.928.23.67.444 1.302.612 1.875 1.298 4.437 3.075 10.515-2.545 13.665-5.353 3.002-11.386 1.276-16.618-.576-.414-.146-.849-.31-1.3-.48-2.244-.843-4.79-1.798-6.946-1.53-1.962.246-2.978 1.405-4.153 2.747-.31.355-.634.712-.973 1.06l20.167 4.747c5.02-.428 9.983-1.336 13.993-4.862 3.828-3.365 2.927-7.292 1.975-11.45l-.169-.74c-.085-.38-.357-1.165-.702-2.157-.811-2.337-2.501-7.198-1.864-8.083 1.186-1.644 6.343 1.598 10.486 4.204 3.078 1.936 5.742 3.61 7.213 3.758 4.49.45 7.127-2.213 9.676-4.79 2.358-2.383 4.585-4.633 8.198-4.668.81-.007 1.802-.249 2.853-.513l1.15-1.221-1.431-4.754c-.542.271-1.083.533-1.618.787"></path><path fill="#D52420" d="M75.243 63.929c-3.584 1.557-7.59 1.951-10.703 1.103-1.945-.54-3.432-1.72-5.007-2.967-1.106-.877-2.25-1.785-3.57-2.451-3.769-1.901-6.837-2.376-9.375-1.448-2.255.825-4.06 2.802-5.369 5.875-.314.738-.548 1.575-.797 2.462-.588 2.093-1.195 4.257-2.89 5.188-1.555.854-3.198.39-4.948-.102-1.562-.442-3.177-.897-4.759-.357-1.103.376-1.676 1.121-2.23 1.842-.393.513-.766.998-1.322 1.34-.783.48-1.482.493-2.222.508-.589.01-1.197.022-1.87.257-1.34.465-2.294 1.347-3.216 2.201-1.008.933-1.961 1.815-3.377 2.159-1.147.278-2.158.211-3.137.145-.204-.013-.405-.026-.606-.036l2.578 8.565c4.788-4.507 9.514-7.705 14.374-9.716 3.627-1.5 5.438-1.698 9.23-1.013.578.106 1.111.237 1.581.353 2.063.51 3.426.847 4.746-2.047.593-1.3.93-2.792 1.287-4.372.778-3.452 1.585-7.022 5.27-8.29 3.86-1.326 7.993.938 11.992 3.125 2.644 1.45 5.144 2.814 7.54 3.187 3.872.6 7.114-1.869 10.25-4.257 1.774-1.353 3.61-2.75 5.504-3.527 2.567-1.051 4.641-2.024 6.389-3.887L88.88 52.11c-3.72 5.482-8.363 9.527-13.638 11.819"></path><path fill="#3D7454" d="M72.75 97.748c-1.371-1.358-3.081-3.048-4.513-2.7-.738.178-1.174.478-1.334.912-.28.768.433 1.737 1.06 2.593.278.378.54.736.691 1.036 1.745 3.46 1.279 5.853.573 9.476l-.18.928c-.037.11-.08.211-.121.317l8.898-9.46a16.922 16.922 0 0 1-3.548-1.734c-.401-.256-.947-.796-1.525-1.368"></path><path fill="#9DC567" d="M27.544 32.717c.358-.358.729-.728 1.205-.797 1.28-.186 2.211.391 3.199 1 .499.309 1.014.627 1.591.856 3.55 1.41 7.163.952 10.438-1.32 1.53-1.06 2.368-2.5 3.178-3.894.548-.941 1.125-1.903 1.905-2.748l-12.655-2.979-10.057 10.692.16-.05c.4-.124.723-.448 1.036-.76"></path><path fill="#3D7454" d="M63.268 29.158 49.06 25.814c-.78.845-1.357 1.806-1.905 2.748-.81 1.394-1.647 2.833-3.178 3.894-3.276 2.273-6.888 2.731-10.438 1.32-.576-.23-1.092-.547-1.591-.856-.988-.61-1.918-1.186-3.199-1-.477.069-1.373.124-1.73.481-.313.313-1.014 1.013-1.414 1.138l.743-.011-9.936 10.564c1.006 1.564 1.783 3.192 2.27 4.788.168.549.242 1.31.32 2.118.122 1.26.26 2.688.773 3.29.764.896 1.528 1.272 2.327 1.147 1.78-.28 3.505-2.998 4.44-5.24 1.993-4.779 2.93-4.795 7.437-4.874l.416-.008c4.778-.089 9.631-1.77 13.316-4.613 1.21-.935 2.244-1.893 3.243-2.819 2.22-2.057 4.317-4 7.797-5.112.424-.136.845-.261 1.266-.386.385-.115.764-.229 1.14-.348-.043-.147-.088-.294-.13-.442.74-.818 1.49-1.627 2.24-2.435"></path><path fill="#3D7454" d="m88.873 51.573-2.468-8.199c-2.02 2.125-4.036 4.251-6.059 6.37-4.97-1.06-9.83-2.578-14.81-3.58-.672-2.186-1.334-4.376-1.992-6.567-1.2.683-2.422 1.47-3.44 2.149-.278.185-.553.369-.829.55-.55.363-1.102.718-1.667 1.055-.418.25-.85.488-1.29.717-.451.235-.912.462-1.4.669-.642.272-1.32.516-2.05.726-4.02 1.155-8.313 2.268-12.462 2.59l-.214.015c-4.637.36-6.037.467-8.392 4.62-2.231 3.938-3.321 4.875-6.671 6.8-.383.219-1.087.313-1.517.564a27.696 27.696 0 0 0-1.7 1.14c-1.85 1.34-4.393 3.518-6.386 3.169-.336-.061-.71-.228-1.045-.455a2.307 2.307 0 0 1-.53-.45 2.354 2.354 0 0 1-.224-.271.604.604 0 0 1-.038-.08 2.12 2.12 0 0 1-.234-.692c-.218-1.23.226-3.133.67-4.996.359-1.505.696-2.926.633-3.801a14.037 14.037 0 0 0-.486-2.758c-.316-1.113-.787-2.172-1.448-2.952l-9.74 10.155L9.39 79.456l.456.655c.201.01.7-.276.904-.262.978.066 2.175-.035 3.321-.314 1.417-.344 2.003-1.345 3.011-2.278.922-.854 2.084-1.42 3.424-1.885.673-.234 1.242-.247 1.831-.258.74-.014 1.52-.277 2.301-.758.558-.342 1.072-1.004 1.465-1.517.554-.722 1.042-1.22 2.145-1.596 1.581-.54 2.912.238 4.473.68 1.75.492 3.493.776 5.048-.078 1.695-.931 2.182-3.372 2.77-5.466.25-.885.483-1.724.797-2.46 1.308-3.075 3.36-4.693 5.614-5.518 2.54-.928 5.23-.331 8.997 1.569 1.32.666 2.32 1.529 3.428 2.407 1.574 1.247 3.364 2.388 5.31 2.928 3.112.849 7.27.303 10.854-1.255 5.274-2.291 9.739-6.581 13.46-12.062l-.125-.415Z"></path><path fill="#F4C01E" d="M21.796 61.315a27.65 27.65 0 0 1 1.67-1.123l-.264.154c-.35.204-.84.559-1.406.969"></path><path fill="#F4C01E" d="M96.167 81.347c-1.052.264-2.044.506-2.854.513-3.613.035-5.84 2.285-8.197 4.668-2.55 2.577-5.186 5.24-9.678 4.79-1.47-.148-4.134-1.822-7.213-3.758-4.142-2.606-9.299-5.848-10.485-4.204-.637.885 1.052 5.746 1.864 8.083.345.992.617 1.776.702 2.157l.168.74c.954 4.158 1.854 8.085-1.974 11.45-4.01 3.526-8.972 4.434-13.993 4.862L24.34 105.9l-7.095-1.669-.758-2.523a17.145 17.145 0 0 1 1.77-1.576c.913-.7 1.89-1.552 2.926-2.452 2.636-2.29 5.62-4.887 8.495-5.805.925-.297 1.853-.625 2.838-.972 4.204-1.486 8.963-3.168 13.449-1.996l.104.028c.665.18 1.574.912 2.453 1.62.762.614 1.62 1.311 2.019 1.334.662.039 1.12-.109 1.403-.447.66-.79.24-2.533-.038-3.687a16.427 16.427 0 0 1-.167-.733 71.594 71.594 0 0 0-.274-1.328c-.79-3.724-1.982-9.352 1.319-11.861 3.737-2.842 6.793-.752 9.749 1.269.844.577 1.717 1.174 2.578 1.628 4.38 2.31 10.875 4.975 16.706 1.488 2.27-1.358 4.191-3.256 6.049-5.09 1.803-1.782 3.668-3.618 5.85-4.96l2.169 7.204 1.431 4.754-1.15 1.221ZM68.926 110.31c.04-.106.085-.207.122-.317l.178-.928c.707-3.623 1.173-6.015-.571-9.476-.152-.3-.414-.658-.691-1.036-.628-.856-1.34-1.825-1.06-2.593.159-.434.595-.734 1.334-.912 1.431-.348 3.141 1.342 4.512 2.7.58.572 1.125 1.112 1.526 1.368a16.856 16.856 0 0 0 3.547 1.734l-8.897 9.46Zm31.652-30.221-1.899-6.307-2.21-7.338-3.625-12.047-1.77-5.875-.123-.412-2.176-7.227c-.828.873-1.658 1.742-2.486 2.614l2.468 8.199.125.415 1.703 5.658c-1.746 1.863-3.821 2.836-6.388 3.888-1.894.775-3.73 2.173-5.503 3.526-3.137 2.388-6.38 4.857-10.25 4.257-2.396-.373-4.896-1.738-7.541-3.187-3.999-2.188-8.133-4.45-11.99-3.125-3.687 1.268-4.493 4.838-5.273 8.29-.356 1.58-.693 3.071-1.287 4.372-1.319 2.894-2.682 2.558-4.744 2.047-.47-.115-1.004-.247-1.582-.353-3.792-.685-5.603-.486-9.23 1.013-4.86 2.011-9.586 5.208-14.373 9.716l-2.579-8.565-.13-.431-6.387-21.215 9.38-9.972.115-.123c.62.85 1.055 1.946 1.333 3.074.264.93.423 1.892.486 2.758.063.875-.274 2.296-.633 3.801-.444 1.863-.888 3.767-.67 4.996.039.102.157.506.234.692a.545.545 0 0 0 .04.08c.062.094.14.184.221.272.154.164.335.317.531.45.336.226.709.393 1.045.454 1.993.349 4.536-1.83 6.386-3.17.566-.41 1.056-.764 1.406-.968l.265-.154a.407.407 0 0 1 .024-.015l.005-.001c.431-.252 1.134-.346 1.517-.566 3.35-1.924 4.44-2.86 6.672-6.799 2.354-4.153 3.754-4.26 8.391-4.62 4.15-.32 8.656-1.45 12.677-2.605.73-.21 1.407-.455 2.049-.726.488-.207.949-.434 1.4-.67.44-.228.872-.465 1.29-.715a46.034 46.034 0 0 0 1.667-1.056c.276-.181.551-.365.829-.55 1.08-.72 2.2-1.461 3.439-2.153l-.128-.423a900.927 900.927 0 0 1-2.142-7.258c-.376.119-.755.233-1.14.348-.42.125-.842.25-1.266.386-3.48 1.111-5.577 3.054-7.797 5.112-.999.926-2.033 1.884-3.243 2.819-3.685 2.843-8.538 4.524-13.316 4.612l-.416.008c-4.507.08-5.444.096-7.436 4.874-.936 2.243-2.66 4.961-4.441 5.24-.8.126-1.563-.25-2.327-1.147-.512-.6-.65-2.029-.773-3.29-.078-.806-.152-1.568-.32-2.117-.487-1.596-1.264-3.224-2.27-4.788l9.936-10.564 10.056-10.693 12.656 2.98 14.208 3.344c.822-.884 1.65-1.761 2.482-2.636l-13.001-3.06-16.507-3.886a1.568 1.568 0 0 0-1.5.452l-12.933 13.75-7.294 7.755-4.504 4.788-.426.453-9.16 9.738c-.384.408-.52.99-.358 1.526l6.582 21.865.127.422L9.9 90.702l4.2 13.955.405 1.343a1.56 1.56 0 0 0 1.142 1.074l4.972 1.17 13.874 3.266 24.828 5.845 5.081 1.195a1.565 1.565 0 0 0 1.5-.452l15.696-16.687 5.229-5.559 1.37-1.457 12.022-12.78c.198-.213.327-.472.386-.746.055-.255.05-.522-.027-.78Z"></path><path fill="#F4C01E" d="M59.988 41.869a58.85 58.85 0 0 1 3.44-2.149l-.001-.004c-1.238.692-2.359 1.432-3.44 2.153"></path><path d="M13.612 63.309c.063.093.14.183.222.27M13.573 63.228a.558.558 0 0 0 .039.08M56.203 44.191c.44-.229.87-.467 1.29-.717"></path><path fill="#F4C01E" d="M67.17 28.532c1.548-1.23 3.058-2.51 4.554-3.806.573.189 1.14.396 1.705.612.214.078.43.152.647.228.584.203 1.172.405 1.75.627.514.19 1.033.37 1.55.546.255 1.653.615 3.29.845 4.947.074.296.146.593.218.891-1.546 1.23-3.06 2.5-4.544 3.804a23.207 23.207 0 0 1-1.707-.617c-1.02-.356-2.049-.685-3.046-1.097-.313-.067-.597-.226-.908-.29-.241-1.659-.62-3.296-.849-4.957l-.216-.888"></path><path fill="#D52420" d="M84.067 25.308a140.74 140.74 0 0 0 4.106-4.286c.59.125 1.175.268 1.762.42.22.053.443.104.668.155.602.137 1.209.273 1.809.43.532.131 1.067.254 1.601.371.436 1.615.974 3.202 1.387 4.824.106.285.21.572.314.86a120.14 120.14 0 0 0-4.095 4.283 23.585 23.585 0 0 1-1.765-.423c-1.052-.242-2.111-.455-3.148-.754-.32-.032-.618-.16-.934-.187-.425-1.623-.982-3.208-1.393-4.834l-.312-.859M86.15 1.864c1.308-.589 2.6-1.22 3.883-1.864.369.235.73.482 1.09.734.136.093.274.184.414.277.374.246.752.493 1.12.753.327.225.66.445.992.661-.115 1.208-.155 2.424-.288 3.63-.001.222-.004.443-.006.665a88.006 88.006 0 0 0-3.875 1.865 16.866 16.866 0 0 1-1.09-.737c-.654-.433-1.32-.849-1.947-1.317-.209-.103-.38-.265-.588-.365.126-1.21.152-2.43.288-3.639l.007-.663"></path><path fill="#3D7454" d="M72.14 40.878c1.965-.22 3.924-.5 5.88-.802.385.465.755.942 1.119 1.425.14.18.283.357.426.538.386.481.777.965 1.149 1.462.334.434.678.862 1.022 1.287-.662 1.535-1.23 3.113-1.915 4.638-.095.29-.19.58-.29.87-1.962.22-3.92.49-5.87.805-.39-.463-.765-.938-1.118-1.429-.673-.845-1.37-1.67-1.996-2.55-.23-.223-.385-.508-.615-.728.678-1.533 1.227-3.121 1.917-4.65l.29-.866"></path><path fill="#F4C01E" d="M96.885 36.516a107.75 107.75 0 0 0 4.505-.707c.302.35.593.711.88 1.077.11.136.223.27.337.406.303.364.61.73.905 1.105.263.328.533.652.804.973-.485 1.19-.896 2.41-1.398 3.592-.068.224-.138.447-.208.672-1.505.2-3.005.437-4.497.71-.307-.35-.603-.709-.88-1.08-.531-.639-1.08-1.262-1.573-1.927-.18-.169-.304-.385-.484-.55.496-1.188.894-2.416 1.4-3.6.07-.224.139-.448.21-.671"></path><path fill="#3D7454" d="M76.208 16.211a101.969 101.969 0 0 0-2.658-3.415c.152-.412.317-.82.489-1.227.062-.154.122-.309.182-.465.162-.42.325-.844.502-1.26.15-.37.296-.743.437-1.116 1.21-.144 2.413-.364 3.626-.49.218-.047.435-.092.655-.137a86.868 86.868 0 0 0 2.657 3.407c-.15.417-.312.827-.493 1.23-.286.733-.55 1.475-.876 2.191-.057.227-.18.43-.235.654-1.214.134-2.417.37-3.634.494l-.652.134M162.387 42.297c7.212 0 12.451 2.714 14.301 4.008 1.356 1.047 1.48 2.157.554 3.575l-1.109 1.726c-.925 1.417-2.034 1.54-3.575.677-1.91-1.109-5.055-2.712-9.74-2.712-9.553 0-14.854 6.904-14.854 15.164 0 9.185 6.472 15.533 14.608 15.533 7.335 0 11.095-4.808 11.095-4.808v-4.87h-4.191c-1.664 0-2.589-.924-2.589-2.589v-1.664c0-1.726.925-2.59 2.589-2.59h8.753c1.664 0 2.527.864 2.527 2.59v17.876c0 1.726-.863 2.588-2.527 2.588h-1.54c-1.666 0-2.528-.862-2.528-2.096V83.66c0-.555.061-1.05.061-1.05h-.123s-4.377 4.932-12.822 4.932c-11.587 0-21.511-9.06-21.511-22.436 0-13.068 9.554-22.808 22.621-22.808M212.493 63.563c4.253 0 6.903-2.65 6.903-6.965 0-2.773-1.048-4.992-3.452-5.98-1.047-.492-2.404-.738-4.746-.738h-5.855v13.683h7.15Zm-15.04-17.937c0-1.664.862-2.589 2.527-2.589h11.835c4.314 0 6.472.37 8.321 1.172 4.438 1.85 7.335 6.04 7.335 11.958 0 5.178-2.712 10.108-7.273 11.957v.124s.554.678 1.417 2.28l7.212 13.192c1.048 1.787.246 3.081-1.788 3.081h-3.328c-1.418 0-2.343-.554-3.02-1.787l-7.705-14.547h-7.643v13.746c0 1.726-.864 2.588-2.528 2.588h-2.835c-1.665 0-2.527-.862-2.527-2.588V45.626ZM264.818 69.111 260.934 57.4c-.739-2.466-1.726-6.781-1.726-6.781h-.123s-.986 4.315-1.726 6.781l-3.944 11.711h11.403Zm-10.54-23.977c.493-1.418 1.417-2.096 2.896-2.096h3.945c1.48 0 2.466.678 2.898 2.096L277.7 83.842c.616 1.788-.185 2.96-2.096 2.96h-2.836c-1.479 0-2.465-.679-2.897-2.096l-3.081-9.123h-15.348l-3.021 9.061c-.432 1.48-1.418 2.158-2.897 2.158h-2.836c-1.91 0-2.711-1.172-2.096-2.96l13.685-38.708ZM292.364 45.626c0-1.664.863-2.589 2.528-2.589h3.328c1.48 0 2.404.493 3.082 1.727l15.534 23.546c1.663 2.589 3.636 6.78 3.636 6.78h.123s-.432-4.191-.432-6.78V45.626c0-1.664.924-2.589 2.59-2.589h2.772c1.665 0 2.589.925 2.589 2.59v38.586c0 1.725-.924 2.589-2.589 2.589h-3.328c-1.355 0-2.342-.494-3.02-1.726L303.582 61.59c-1.602-2.589-3.636-6.78-3.636-6.78h-.123s.431 4.191.431 6.78v22.622c0 1.725-.863 2.589-2.527 2.589h-2.835c-1.665 0-2.528-.864-2.528-2.59V45.627ZM346.29 45.626c0-1.664.863-2.589 2.528-2.589h2.774c1.725 0 2.589.925 2.589 2.59v25.395c0 5.916 3.821 9.246 9.677 9.246 5.855 0 9.738-3.33 9.738-9.246V45.626c0-1.664.864-2.589 2.528-2.589h2.835c1.665 0 2.527.925 2.527 2.59v25.456c0 9.802-7.026 16.459-17.566 16.459-10.603 0-17.63-6.657-17.63-16.459V45.626ZM399.725 45.626c0-1.664.863-2.589 2.527-2.589h2.836c1.664 0 2.527.925 2.527 2.59v34.332h16.335c1.726 0 2.588.863 2.588 2.528v1.726c0 1.725-.862 2.589-2.588 2.589h-21.698c-1.664 0-2.527-.864-2.527-2.59V45.627ZM460.62 69.111 456.736 57.4c-.74-2.466-1.726-6.781-1.726-6.781h-.124s-.986 4.315-1.726 6.781l-3.943 11.711h11.403Zm-10.542-23.977c.494-1.418 1.419-2.096 2.898-2.096h3.945c1.478 0 2.466.678 2.897 2.096l13.683 38.708c.617 1.788-.185 2.96-2.095 2.96h-2.835c-1.48 0-2.466-.679-2.897-2.096l-3.083-9.123h-15.348l-3.02 9.061c-.432 1.48-1.417 2.158-2.896 2.158h-2.836c-1.91 0-2.713-1.172-2.096-2.96l13.683-38.708ZM503.205 63.563c4.254 0 6.904-2.65 6.904-6.965 0-2.773-1.048-4.992-3.451-5.98-1.05-.492-2.405-.738-4.747-.738h-5.856v13.683h7.15Zm-15.039-17.937c0-1.664.862-2.589 2.526-2.589h11.835c4.315 0 6.472.37 8.321 1.172 4.438 1.85 7.335 6.04 7.335 11.958 0 5.178-2.711 10.108-7.273 11.957v.124s.555.678 1.418 2.28l7.212 13.192c1.047 1.787.247 3.081-1.788 3.081h-3.329c-1.417 0-2.342-.554-3.02-1.787l-7.705-14.547h-7.643v13.746c0 1.726-.862 2.588-2.527 2.588h-2.836c-1.664 0-2.526-.862-2.526-2.588V45.626Z"></path></g></svg> 